<svg width="140" height="30" viewBox="0 0 140 30" fill="none" xmlns="http://www.w3.org/2000/svg">
<path d="M6.102 18.2815L0 7.42533C0.114361 7.34364 0.285903 7.27829 0.514626 7.22928C0.759686 7.16393 0.988409 7.13126 1.20079 7.13126C2.034 7.13126 2.63031 7.48251 2.98973 8.18502L7.18026 16.0514L6.66563 17.0807L6.83718 17.1787L11.4933 8.18502C11.8691 7.48251 12.4736 7.13126 13.3068 7.13126C13.5191 7.13126 13.7397 7.16393 13.9684 7.22928C14.2135 7.27829 14.3932 7.34364 14.5076 7.42533L8.40556 18.2815V22.8151C8.40556 23.4359 8.20951 23.9097 7.81742 24.2365C7.42532 24.5632 6.85351 24.7266 6.102 24.7266V18.2815Z" fill="#0284C7"/>
<path d="M24.0561 24.7266C22.7654 24.7266 21.5973 24.4652 20.5517 23.9424C19.5061 23.4196 18.6811 22.7007 18.0766 21.7859C17.4885 20.8546 17.1944 19.8172 17.1944 18.6736V9.04273C17.1944 8.42191 17.3905 7.94812 17.7826 7.62138C18.1747 7.29463 18.7465 7.13126 19.498 7.13126V18.6736C19.498 19.8662 19.9146 20.8301 20.7478 21.5653C21.5973 22.3005 22.7001 22.6681 24.0561 22.6681C25.4121 22.6681 26.5067 22.3005 27.3399 21.5653C28.1731 20.8301 28.5897 19.8662 28.5897 18.6736V9.04273C28.5897 8.42191 28.7858 7.94812 29.1779 7.62138C29.5699 7.29463 30.1418 7.13126 30.8933 7.13126V18.6736C30.8933 19.8172 30.5992 20.8546 30.0111 21.7859C29.4229 22.7007 28.606 23.4196 27.5605 23.9424C26.5149 24.4652 25.3467 24.7266 24.0561 24.7266Z" fill="#0284C7"/>
<rect x="34.8904" width="104.151" height="29.8667" rx="2" fill="#0284C7"/>
<path d="M42.377 24.506C42.0503 24.506 41.7725 24.3998 41.5438 24.1874C41.3151 23.9751 41.2007 23.7218 41.2007 23.4278V8.43008C41.2007 8.11967 41.3151 7.86644 41.5438 7.67039C41.7725 7.458 42.0503 7.35181 42.377 7.35181H49.1897C50.611 7.35181 51.7383 7.77658 52.5715 8.62612C53.421 9.47567 53.8458 10.6193 53.8458 12.057C53.8458 12.8248 53.6416 13.5437 53.2332 14.2135C52.8247 14.8833 52.2938 15.3816 51.6403 15.7084V15.7574C52.5715 16.0351 53.2903 16.5171 53.7968 17.2032C54.3033 17.8731 54.5565 18.6899 54.5565 19.6538C54.5565 20.6014 54.3523 21.4428 53.9438 22.1779C53.5517 22.9131 52.9963 23.4849 52.2774 23.8934C51.5586 24.3018 50.7336 24.506 49.8023 24.506H42.377ZM49.1407 14.9242C49.8105 14.9242 50.3823 14.6546 50.8561 14.1155C51.3462 13.56 51.5913 12.8902 51.5913 12.106C51.5913 11.2401 51.3707 10.5621 50.9296 10.072C50.5048 9.58186 49.9085 9.3368 49.1407 9.3368H43.4798V14.9242H49.1407ZM49.6308 22.521C50.464 22.521 51.1175 22.276 51.5913 21.7859C52.065 21.2794 52.3019 20.5769 52.3019 19.6783C52.3019 18.8125 52.065 18.1345 51.5913 17.6443C51.1338 17.1542 50.4803 16.9092 49.6308 16.9092H43.4798V22.521H49.6308Z" fill="#F8FAFC"/>
<path d="M58.5793 24.506C58.2526 24.506 57.9667 24.3917 57.7216 24.1629C57.4929 23.9179 57.3785 23.632 57.3785 23.3052V9.04273C57.3785 7.76841 58.1464 7.13126 59.6821 7.13126V22.472H67.2054C67.7772 22.472 68.2183 22.6517 68.5287 23.0112C68.8392 23.3542 68.9944 23.8525 68.9944 24.506H58.5793Z" fill="#F8FAFC"/>
<path d="M71.57 8.43008C71.57 8.11967 71.6843 7.86644 71.9131 7.67039C72.1418 7.458 72.4195 7.35181 72.7463 7.35181H83.6024C83.6024 8.03798 83.4636 8.54444 83.1858 8.87118C82.9081 9.19793 82.4752 9.3613 81.887 9.3613H73.8735V14.8506H80.7352C80.7352 15.5368 80.5964 16.0433 80.3186 16.37C80.0409 16.6968 79.6161 16.8601 79.0443 16.8601H73.8735V22.4965H82.4016C82.9734 22.4965 83.3982 22.6599 83.6759 22.9866C83.9537 23.3134 84.0925 23.8199 84.0925 24.506H72.7463C72.4195 24.506 72.1418 24.408 71.9131 24.2119C71.6843 23.9996 71.57 23.7382 71.57 23.4278V8.43008Z" fill="#F8FAFC"/>
<path d="M86.9102 9.11624C86.9102 8.49542 87.098 8.01347 87.4738 7.67039C87.8659 7.31097 88.405 7.13126 89.0912 7.13126L98.5995 21.5898L98.7711 21.4428L98.0604 20.2665V7.13126C98.8119 7.13126 99.3755 7.29463 99.7513 7.62138C100.143 7.94812 100.339 8.42191 100.339 9.04273V22.9131C100.339 23.4359 100.152 23.8689 99.7758 24.2119C99.4164 24.555 98.9508 24.7266 98.379 24.7266L88.6501 9.94945L88.4785 10.0965L89.1892 11.2728V22.8151C89.1892 23.4359 88.9932 23.9097 88.6011 24.2365C88.2253 24.5632 87.6617 24.7266 86.9102 24.7266V9.11624Z" fill="#F8FAFC"/>
<path d="M104.958 24.506C104.632 24.506 104.354 24.408 104.125 24.2119C103.896 23.9996 103.782 23.7382 103.782 23.4278V8.43008C103.782 8.11967 103.888 7.86644 104.101 7.67039C104.329 7.458 104.615 7.35181 104.958 7.35181H110.693C112.081 7.35181 113.307 7.61321 114.369 8.136C115.43 8.6588 116.256 9.39398 116.844 10.3415C117.448 11.2728 117.75 12.3429 117.75 13.5518V18.257C117.75 19.4659 117.448 20.5442 116.844 21.4918C116.256 22.4393 115.422 23.1827 114.344 23.7218C113.282 24.2446 112.065 24.506 110.693 24.506H104.958ZM110.448 22.4965C112.016 22.4965 113.241 22.1289 114.124 21.3938C115.006 20.6422 115.447 19.6048 115.447 18.2815V13.5273C115.447 12.2203 115.006 11.1993 114.124 10.4641C113.241 9.72889 112.016 9.3613 110.448 9.3613H106.086V22.4965H110.448Z" fill="#F8FAFC"/>
<path d="M127.067 24.7266C125.695 24.7266 124.503 24.5305 123.49 24.1384C122.493 23.7463 121.733 23.2235 121.211 22.57C120.688 21.9166 120.426 21.214 120.426 20.4625C120.426 19.8417 120.59 19.3679 120.916 19.0412C121.243 18.6981 121.741 18.5266 122.411 18.5266C122.411 19.9152 122.828 20.9772 123.661 21.7123C124.494 22.4312 125.662 22.7906 127.165 22.7906C128.603 22.7906 129.706 22.5537 130.474 22.0799C131.242 21.5898 131.626 20.871 131.626 19.9234C131.626 19.3516 131.479 18.886 131.184 18.5266C130.907 18.1508 130.425 17.8322 129.739 17.5708C129.069 17.2931 128.097 17.0153 126.822 16.7376C125.319 16.4109 124.127 16.0351 123.245 15.6103C122.362 15.1692 121.717 14.6383 121.309 14.0174C120.9 13.3966 120.696 12.6288 120.696 11.7139C120.696 10.799 120.949 9.99846 121.456 9.31229C121.978 8.60979 122.714 8.07065 123.661 7.69489C124.609 7.31914 125.711 7.13126 126.969 7.13126C128.162 7.13126 129.224 7.3028 130.155 7.64588C131.103 7.97263 131.838 8.44641 132.361 9.06723C132.9 9.67171 133.169 10.3579 133.169 11.1257C133.169 11.5995 133.014 11.9753 132.704 12.253C132.41 12.5144 131.944 12.6451 131.307 12.6451C131.127 11.4035 130.686 10.4967 129.984 9.92494C129.298 9.35313 128.293 9.06723 126.969 9.06723C125.695 9.06723 124.715 9.29595 124.029 9.7534C123.343 10.1945 122.999 10.8235 122.999 11.6404C122.999 12.2122 123.122 12.686 123.367 13.0617C123.628 13.4211 124.061 13.7315 124.666 13.9929C125.287 14.2543 126.153 14.5076 127.264 14.7526C128.93 15.112 130.237 15.5123 131.184 15.9534C132.148 16.3945 132.843 16.9337 133.267 17.5708C133.692 18.208 133.905 18.9922 133.905 19.9234C133.905 21.4101 133.284 22.5864 132.042 23.4523C130.801 24.3018 129.142 24.7266 127.067 24.7266Z" fill="#F8FAFC"/>
</svg>
